<mxfile host="app.diagrams.net" agent="Mozilla/5.0 (Windows NT 10.0; Win64; x64) AppleWebKit/537.36 (KHTML, like Gecko) Chrome/131.0.0.0 Safari/537.36" version="25.0.3">
  <diagram name="Page-1" id="rK4gAqbvqo0SBjuRVVSC">
    <mxGraphModel dx="875" dy="442" grid="1" gridSize="10" guides="1" tooltips="1" connect="1" arrows="1" fold="1" page="1" pageScale="1" pageWidth="850" pageHeight="1100" math="0" shadow="0">
      <root>
        <mxCell id="0" />
        <mxCell id="1" parent="0" />
        <mxCell id="VtoEGKIZ9GzKH0moWxmC-13" style="edgeStyle=orthogonalEdgeStyle;rounded=0;orthogonalLoop=1;jettySize=auto;html=1;entryX=0.5;entryY=0;entryDx=0;entryDy=0;" parent="1" source="VtoEGKIZ9GzKH0moWxmC-1" target="VtoEGKIZ9GzKH0moWxmC-4" edge="1">
          <mxGeometry relative="1" as="geometry">
            <Array as="points">
              <mxPoint x="400" y="180" />
              <mxPoint x="400" y="180" />
            </Array>
          </mxGeometry>
        </mxCell>
        <mxCell id="VtoEGKIZ9GzKH0moWxmC-1" value="Character Class" style="rounded=1;whiteSpace=wrap;html=1;" parent="1" vertex="1">
          <mxGeometry x="340" y="110" width="120" height="40" as="geometry" />
        </mxCell>
        <mxCell id="VtoEGKIZ9GzKH0moWxmC-3" value="Horizontal Movement" style="swimlane;whiteSpace=wrap;html=1;" parent="1" vertex="1">
          <mxGeometry x="70" y="210" width="200" height="120" as="geometry" />
        </mxCell>
        <mxCell id="VtoEGKIZ9GzKH0moWxmC-7" value="run&lt;div&gt;moveRight&lt;div&gt;moveLeft&lt;/div&gt;&lt;div&gt;stopRunning&lt;/div&gt;&lt;/div&gt;" style="rounded=0;whiteSpace=wrap;html=1;align=left;" parent="VtoEGKIZ9GzKH0moWxmC-3" vertex="1">
          <mxGeometry x="15" y="30" width="170" height="70" as="geometry" />
        </mxCell>
        <mxCell id="VtoEGKIZ9GzKH0moWxmC-4" value="Vertical Movement" style="swimlane;whiteSpace=wrap;html=1;" parent="1" vertex="1">
          <mxGeometry x="300" y="210" width="200" height="120" as="geometry" />
        </mxCell>
        <mxCell id="VtoEGKIZ9GzKH0moWxmC-8" value="onAirCheck&lt;div&gt;moveUp&lt;/div&gt;&lt;div&gt;jump&lt;/div&gt;&lt;div&gt;fall&lt;/div&gt;" style="rounded=0;whiteSpace=wrap;html=1;align=left;" parent="VtoEGKIZ9GzKH0moWxmC-4" vertex="1">
          <mxGeometry x="15" y="30" width="170" height="70" as="geometry" />
        </mxCell>
        <mxCell id="VtoEGKIZ9GzKH0moWxmC-9" value="Draw" style="swimlane;whiteSpace=wrap;html=1;" parent="1" vertex="1">
          <mxGeometry x="520" y="210" width="200" height="120" as="geometry" />
        </mxCell>
        <mxCell id="VtoEGKIZ9GzKH0moWxmC-10" value="draw&lt;div&gt;setAnimation&lt;/div&gt;" style="rounded=0;whiteSpace=wrap;html=1;align=left;" parent="VtoEGKIZ9GzKH0moWxmC-9" vertex="1">
          <mxGeometry x="15" y="30" width="170" height="70" as="geometry" />
        </mxCell>
        <mxCell id="VtoEGKIZ9GzKH0moWxmC-15" style="edgeStyle=orthogonalEdgeStyle;rounded=0;orthogonalLoop=1;jettySize=auto;html=1;entryX=0.5;entryY=0;entryDx=0;entryDy=0;exitX=0.5;exitY=1;exitDx=0;exitDy=0;" parent="1" source="VtoEGKIZ9GzKH0moWxmC-1" target="VtoEGKIZ9GzKH0moWxmC-9" edge="1">
          <mxGeometry relative="1" as="geometry">
            <mxPoint x="410" y="160" as="sourcePoint" />
            <mxPoint x="410" y="220" as="targetPoint" />
            <Array as="points">
              <mxPoint x="400" y="180" />
              <mxPoint x="620" y="180" />
            </Array>
          </mxGeometry>
        </mxCell>
        <mxCell id="VtoEGKIZ9GzKH0moWxmC-16" style="edgeStyle=orthogonalEdgeStyle;rounded=0;orthogonalLoop=1;jettySize=auto;html=1;entryX=0.5;entryY=0;entryDx=0;entryDy=0;exitX=0.5;exitY=1;exitDx=0;exitDy=0;" parent="1" source="VtoEGKIZ9GzKH0moWxmC-1" target="VtoEGKIZ9GzKH0moWxmC-3" edge="1">
          <mxGeometry relative="1" as="geometry">
            <mxPoint x="410" y="160" as="sourcePoint" />
            <mxPoint x="630" y="220" as="targetPoint" />
            <Array as="points">
              <mxPoint x="400" y="180" />
              <mxPoint x="170" y="180" />
            </Array>
          </mxGeometry>
        </mxCell>
      </root>
    </mxGraphModel>
  </diagram>
</mxfile>
